<?xml version="1.0" encoding="UTF-8" standalone="no"?>
<!-- Created with Inkscape (http://www.inkscape.org/) -->

<svg
   width="512"
   height="512"
   viewBox="0 0 512 512"
   version="1.1"
   id="svg5"
   xml:space="preserve"
   inkscape:version="1.2 (dc2aedaf03, 2022-05-15)"
   sodipodi:docname="Logo.svg"
   inkscape:export-filename="Logo.png"
   inkscape:export-xdpi="187.5"
   inkscape:export-ydpi="187.5"
   xmlns:inkscape="http://www.inkscape.org/namespaces/inkscape"
   xmlns:sodipodi="http://sodipodi.sourceforge.net/DTD/sodipodi-0.dtd"
   xmlns="http://www.w3.org/2000/svg"
   xmlns:svg="http://www.w3.org/2000/svg"><sodipodi:namedview
     id="namedview7"
     pagecolor="#505050"
     bordercolor="#ffffff"
     borderopacity="1"
     inkscape:showpageshadow="0"
     inkscape:pageopacity="0"
     inkscape:pagecheckerboard="1"
     inkscape:deskcolor="#505050"
     inkscape:document-units="px"
     showgrid="false"
     inkscape:zoom="1.2109749"
     inkscape:cx="182.49759"
     inkscape:cy="244.43117"
     inkscape:window-width="1894"
     inkscape:window-height="1014"
     inkscape:window-x="10"
     inkscape:window-y="30"
     inkscape:window-maximized="1"
     inkscape:current-layer="layer1" /><defs
     id="defs2" /><g
     inkscape:label="Layer 1"
     inkscape:groupmode="layer"
     id="layer1"><rect
       style="fill:#ebdbb2;fill-opacity:1;stroke:none;stroke-width:42;stroke-linecap:round;stroke-linejoin:round"
       id="rect184"
       width="512"
       height="512"
       x="0.55074644"
       y="0.66432112"
       sodipodi:insensitive="true" /><path
       d="m 256.20545,512.53721 q -52.9705,0 -99.68753,-20.23178 Q 109.8009,472.07365 74.855095,437.4957 39.909292,402.91774 20.045361,356.20072 0.18143022,309.48369 0.18143022,255.7775 q 0,-52.97048 19.86393078,-99.6875 Q 39.909292,109.37298 74.855095,74.795026 109.8009,40.217071 156.51792,20.35314 203.23495,0.48920895 256.20545,0.48920895 q 52.97048,0 99.6875,19.86393105 46.71703,19.863931 81.66283,54.441886 34.9458,34.577954 54.80975,81.294974 19.86392,46.71702 19.86392,99.6875 0,53.70619 -19.86392,100.42322 -19.86395,46.71702 -54.80975,81.29498 -34.9458,34.57795 -81.66283,54.80973 -46.71702,20.23178 -99.6875,20.23178 z M 351.8466,166.02198 H 479.85859 Q 451.16625,100.54457 399.29932,61.920256 347.43239,23.295944 277.54078,15.938934 q 24.27814,28.692345 43.77421,68.052358 19.49609,39.360008 30.53161,82.030688 z m -174.36118,0 H 335.66117 Q 323.15425,120.4085 303.65817,82.887739 284.16208,45.36698 256.20545,15.203231 228.9845,43.159877 210.22412,79.209234 191.46375,115.25859 177.48542,166.02198 Z M 28.138074,330.81903 H 157.62147 q -3.67849,-20.59964 -5.1499,-39.36001 -1.47139,-18.7604 -1.47139,-35.68152 0,-16.92113 1.47139,-35.31364 1.47141,-18.39254 5.1499,-38.25646 H 28.138074 q -5.88561,16.18541 -8.828414,35.31364 -2.942804,19.12823 -2.942804,38.25646 0,19.86394 2.942804,38.99217 2.942804,19.12823 8.828414,36.04936 z M 234.87011,496.35178 Q 210.59198,471.33795 190.3602,430.50653 170.12841,389.67513 160.56429,347.00446 H 32.552282 q 28.692345,64.7417 80.927128,102.99816 52.23479,38.25646 121.3907,46.34916 z M 32.552282,166.02198 H 160.56429 Q 171.5998,123.3513 190.72804,84.359142 209.85627,45.36698 234.1344,15.938934 164.24279,24.031645 112.74372,62.288107 61.244627,100.54457 32.552282,166.02198 Z M 256.20545,497.82319 q 30.16374,-34.57796 48.55627,-69.8916 18.39253,-35.31366 30.16375,-80.92713 H 177.48542 q 12.50692,48.55627 30.89945,83.50207 18.39252,34.9458 47.82058,67.31666 z M 173.8069,330.81903 h 164.79707 q 3.67852,-21.33534 5.14991,-38.99218 1.47141,-17.65682 1.47141,-36.04935 0,-17.65682 -1.47141,-34.9458 -1.47139,-17.28899 -5.14991,-38.6243 H 173.8069 q -3.67849,21.33531 -5.1499,38.6243 -1.47141,17.28898 -1.47141,34.9458 0,18.39253 1.47141,36.04935 1.47141,17.65684 5.1499,38.99218 z m 104.46958,165.53275 q 65.4774,-6.62131 119.18359,-46.34916 53.70618,-39.72787 82.39852,-102.99816 H 351.8466 q -13.24263,44.14206 -33.10655,84.23777 -19.86393,40.09572 -40.46357,65.10955 z M 354.7894,330.81903 h 129.4834 q 5.88562,-16.92113 8.82842,-36.04936 2.9428,-19.12823 2.9428,-38.99217 0,-19.12823 -2.9428,-38.25646 -2.9428,-19.12823 -8.82842,-35.31364 H 355.5251 q 2.94281,22.07103 4.41421,40.09571 1.47141,18.02467 1.47141,33.47439 0,16.92112 -1.47141,35.31366 -1.4714,18.39253 -5.14991,39.72787 z"
       id="path1613"
       style="fill:#282828;fill-opacity:1;stroke-width:14.714"
       inkscape:label="path1613"
       sodipodi:insensitive="true" /><g
       id="g2090"
       transform="translate(0,-19.63429)"><path
         style="fill:#ebdbb2;fill-opacity:1;stroke:none;stroke-width:1px;stroke-linecap:butt;stroke-linejoin:miter;stroke-opacity:1"
         d="M 280.20476,88.804442 377.92407,185.70077 275.35622,185.3999 Z"
         id="path1922" /><path
         d="m 155.16958,399.27889 q -9.45867,0 -16.55268,-7.094 -7.09401,-7.09401 -7.09401,-16.55268 V 107.63638 q 0,-9.458674 7.09401,-16.552682 7.09401,-7.094007 16.55268,-7.094007 h 142.27425 l 86.31042,86.310429 v 205.33209 q 0,9.45867 -7.094,16.55268 -7.09401,7.094 -16.55269,7.094 z M 285.62049,180.94112 h 74.48707 l -74.48707,-73.30474 z"
         id="path1850"
         style="fill:#458588;fill-opacity:1;stroke:none;stroke-width:7.882;stroke-dasharray:none" /></g><text
       xml:space="preserve"
       style="font-size:192px;line-height:1.25;font-family:Waree;-inkscape-font-specification:Waree;fill:#282828;fill-opacity:1"
       x="174.57521"
       y="328"
       id="text2086"><tspan
         sodipodi:role="line"
         id="tspan2084"
         x="174.57521"
         y="328"
         style="font-style:normal;font-variant:normal;font-weight:normal;font-stretch:normal;font-family:'BlexMono Nerd Font';-inkscape-font-specification:'BlexMono Nerd Font';fill:#282828;fill-opacity:1"></tspan></text></g></svg>
